<?xml version="1.0" encoding="UTF-8" standalone="no"?><!-- Generator: Gravit.io --><svg xmlns="http://www.w3.org/2000/svg" xmlns:xlink="http://www.w3.org/1999/xlink" style="isolation:isolate" viewBox="0 0 128 128" width="128pt" height="128pt"><defs><clipPath id="_clipPath_elkG8pYnxdUb23DgrDhTx8Q2K7Nqojwg"><rect width="128" height="128"/></clipPath></defs><g clip-path="url(#_clipPath_elkG8pYnxdUb23DgrDhTx8Q2K7Nqojwg)"><g style="isolation:isolate"><path d="M 19.127 9.4 L 108.873 9.4 C 114.242 9.4 118.6 13.758 118.6 19.127 L 118.6 108.873 C 118.6 114.242 114.242 118.6 108.873 118.6 L 19.127 118.6 C 13.758 118.6 9.4 114.242 9.4 108.873 L 9.4 19.127 C 9.4 13.758 13.758 9.4 19.127 9.4 Z" style="stroke:none;fill:#000000;stroke-miterlimit:10;"/><g filter="url(#xjVjeOUXdoN3IOdT2Skg1X9RxAwLjKjD)"><path d=" M 19.406 29.316 C 19.406 23.843 23.843 19.406 29.316 19.406 L 98.684 19.406 C 104.157 19.406 108.594 23.843 108.594 29.316 L 108.594 98.684 C 108.594 104.157 104.157 108.594 98.684 108.594 L 29.316 108.594 C 23.843 108.594 19.406 104.157 19.406 98.684 L 19.406 29.316 Z " fill="rgb(0,0,0)"/><rect x="46.658" y="36.748" width="4.955" height="4.955" transform="matrix(1,0,0,1,0,0)" fill="rgb(139,195,74)"/><rect x="46.658" y="44.181" width="4.955" height="4.955" transform="matrix(1,0,0,1,0,0)" fill="rgb(100,221,23)"/><rect x="46.658" y="54.09" width="4.955" height="4.955" transform="matrix(1,0,0,1,0,0)" fill="rgb(100,221,23)"/><rect x="46.658" y="64" width="4.955" height="4.955" transform="matrix(1,0,0,1,0,0)" fill="rgb(118,255,3)"/><rect x="46.658" y="76.387" width="4.955" height="4.955" transform="matrix(1,0,0,1,0,0)" fill="rgb(178,255,89)"/><rect x="46.658" y="91.252" width="4.955" height="4.955" transform="matrix(1,0,0,1,0,0)" fill="rgb(204,255,144)"/><rect x="46.658" y="29.316" width="4.955" height="4.955" transform="matrix(1,0,0,1,0,0)" fill="rgb(139,195,74)"/><rect x="46.658" y="24.361" width="4.955" height="2.477" transform="matrix(1,0,0,1,0,0)" fill="rgb(139,195,74)"/><rect x="66.477" y="24.361" width="4.955" height="2.477" transform="matrix(1,0,0,1,0,0)" fill="rgb(139,195,74)"/><rect x="26.839" y="41.703" width="4.955" height="4.955" transform="matrix(1,0,0,1,0,0)" fill="rgb(139,195,74)"/><rect x="26.839" y="49.135" width="4.955" height="4.955" transform="matrix(1,0,0,1,0,0)" fill="rgb(100,221,23)"/><rect x="26.839" y="59.045" width="4.955" height="4.955" transform="matrix(1,0,0,1,0,0)" fill="rgb(100,221,23)"/><rect x="26.839" y="68.955" width="4.955" height="4.955" transform="matrix(1,0,0,1,0,0)" fill="rgb(118,255,3)"/><rect x="26.839" y="81.342" width="4.955" height="4.955" transform="matrix(1,0,0,1,0,0)" fill="rgb(178,255,89)"/><rect x="26.839" y="96.207" width="4.955" height="4.955" transform="matrix(1,0,0,1,0,0)" fill="rgb(204,255,144)"/><rect x="26.839" y="34.271" width="4.955" height="4.955" transform="matrix(1,0,0,1,0,0)" fill="rgb(139,195,74)"/><rect x="36.748" y="24.361" width="4.955" height="4.955" transform="matrix(1,0,0,1,0,0)" fill="rgb(139,195,74)"/><rect x="26.839" y="24.361" width="4.955" height="7.432" transform="matrix(1,0,0,1,0,0)" fill="rgb(139,195,74)"/><rect x="36.748" y="31.793" width="4.955" height="4.955" transform="matrix(1,0,0,1,0,0)" fill="rgb(100,221,23)"/><rect x="36.748" y="41.703" width="4.955" height="4.955" transform="matrix(1,0,0,1,0,0)" fill="rgb(118,255,3)"/><rect x="36.748" y="51.613" width="4.955" height="4.955" transform="matrix(1,0,0,1,0,0)" fill="rgb(178,255,89)"/><rect x="36.748" y="66.477" width="4.955" height="4.955" transform="matrix(1,0,0,1,0,0)" fill="rgb(204,255,144)"/><rect x="56.568" y="31.793" width="4.955" height="4.955" transform="matrix(1,0,0,1,0,0)" fill="rgb(139,195,74)"/><rect x="56.568" y="39.226" width="4.955" height="4.955" transform="matrix(1,0,0,1,0,0)" fill="rgb(100,221,23)"/><rect x="56.568" y="49.135" width="4.955" height="4.955" transform="matrix(1,0,0,1,0,0)" fill="rgb(100,221,23)"/><rect x="56.568" y="59.045" width="4.955" height="4.955" transform="matrix(1,0,0,1,0,0)" fill="rgb(118,255,3)"/><rect x="56.568" y="71.432" width="4.955" height="4.955" transform="matrix(1,0,0,1,0,0)" fill="rgb(178,255,89)"/><rect x="56.568" y="86.297" width="4.955" height="4.955" transform="matrix(1,0,0,1,0,0)" fill="rgb(204,255,144)"/><rect x="56.568" y="24.361" width="4.955" height="4.955" transform="matrix(1,0,0,1,0,0)" fill="rgb(139,195,74)"/><rect x="66.477" y="44.181" width="4.955" height="4.955" transform="matrix(1,0,0,1,0,0)" fill="rgb(139,195,74)"/><rect x="66.477" y="51.613" width="4.955" height="4.955" transform="matrix(1,0,0,1,0,0)" fill="rgb(100,221,23)"/><rect x="66.477" y="61.523" width="4.955" height="4.955" transform="matrix(1,0,0,1,0,0)" fill="rgb(100,221,23)"/><rect x="66.477" y="71.432" width="4.955" height="4.955" transform="matrix(1,0,0,1,0,0)" fill="rgb(118,255,3)"/><rect x="66.477" y="83.819" width="4.955" height="4.955" transform="matrix(1,0,0,1,0,0)" fill="rgb(178,255,89)"/><rect x="66.477" y="98.684" width="4.955" height="4.955" transform="matrix(1,0,0,1,0,0)" fill="rgb(204,255,144)"/><rect x="66.477" y="36.748" width="4.955" height="4.955" transform="matrix(1,0,0,1,0,0)" fill="rgb(139,195,74)"/><rect x="66.477" y="29.316" width="4.955" height="4.955" transform="matrix(1,0,0,1,0,0)" fill="rgb(139,195,74)"/><rect x="96.207" y="41.703" width="4.955" height="4.955" transform="matrix(1,0,0,1,0,0)" fill="rgb(139,195,74)"/><rect x="96.207" y="49.135" width="4.955" height="4.955" transform="matrix(1,0,0,1,0,0)" fill="rgb(100,221,23)"/><rect x="96.207" y="59.045" width="4.955" height="4.955" transform="matrix(1,0,0,1,0,0)" fill="rgb(100,221,23)"/><rect x="96.207" y="68.955" width="4.955" height="4.955" transform="matrix(1,0,0,1,0,0)" fill="rgb(118,255,3)"/><rect x="96.207" y="81.342" width="4.955" height="4.955" transform="matrix(1,0,0,1,0,0)" fill="rgb(178,255,89)"/><rect x="96.207" y="96.207" width="4.955" height="4.955" transform="matrix(1,0,0,1,0,0)" fill="rgb(204,255,144)"/><rect x="96.207" y="34.271" width="4.955" height="4.955" transform="matrix(1,0,0,1,0,0)" fill="rgb(139,195,74)"/><rect x="96.207" y="24.361" width="4.955" height="7.432" transform="matrix(1,0,0,1,0,0)" fill="rgb(139,195,74)"/><rect x="86.297" y="34.271" width="4.955" height="4.955" transform="matrix(1,0,0,1,0,0)" fill="rgb(139,195,74)"/><rect x="86.297" y="41.703" width="4.955" height="4.955" transform="matrix(1,0,0,1,0,0)" fill="rgb(100,221,23)"/><rect x="86.297" y="51.613" width="4.955" height="4.955" transform="matrix(1,0,0,1,0,0)" fill="rgb(100,221,23)"/><rect x="86.297" y="61.523" width="4.955" height="4.955" transform="matrix(1,0,0,1,0,0)" fill="rgb(118,255,3)"/><rect x="86.297" y="73.91" width="4.955" height="4.955" transform="matrix(1,0,0,1,0,0)" fill="rgb(178,255,89)"/><rect x="86.297" y="88.774" width="4.955" height="4.955" transform="matrix(1,0,0,1,0,0)" fill="rgb(204,255,144)"/><rect x="86.297" y="24.361" width="4.955" height="7.432" transform="matrix(1,0,0,1,0,0)" fill="rgb(139,195,74)"/><rect x="76.387" y="31.793" width="4.955" height="4.955" transform="matrix(1,0,0,1,0,0)" fill="rgb(118,255,3)"/><rect x="76.387" y="24.361" width="4.955" height="4.955" transform="matrix(1,0,0,1,0,0)" fill="rgb(139,195,74)"/><rect x="76.387" y="39.226" width="4.955" height="4.955" transform="matrix(1,0,0,1,0,0)" fill="rgb(178,255,89)"/><rect x="76.387" y="51.613" width="4.955" height="4.955" transform="matrix(1,0,0,1,0,0)" fill="rgb(204,255,144)"/></g><defs><filter id="xjVjeOUXdoN3IOdT2Skg1X9RxAwLjKjD" x="-200%" y="-200%" width="400%" height="400%" filterUnits="objectBoundingBox" color-interpolation-filters="sRGB"><feGaussianBlur xmlns="http://www.w3.org/2000/svg" stdDeviation="0"/></filter></defs><g clip-path="url(#_clipPath_93CXbiHlqu8WnPT8U6quhpj7s6W91QtO)"><text transform="matrix(1,0,0,1,32.828,88.828)" style="font-family:'Open Sans';font-weight:700;font-size:64px;font-style:normal;fill:#ffffff;stroke:none;">M</text></g><defs><clipPath id="_clipPath_93CXbiHlqu8WnPT8U6quhpj7s6W91QtO"><rect x="0" y="0" width="95" height="93" transform="matrix(1,0,0,1,16.5,17.5)"/></clipPath></defs></g></g></svg>